<svg width="387" height="332" viewBox="0 0 387 332" fill="none" xmlns="http://www.w3.org/2000/svg">
<path d="M330.667 1.73322C321.2 6.66656 273.733 33.7332 238 54.5332C218.4 65.8666 210.667 76.5332 210.667 92.2666C210.667 97.7332 211.333 101.467 212.4 102.267C213.2 103.067 217.467 104.667 221.733 106C225.867 107.333 233.333 110.667 238.133 113.467C242.933 116.4 247.6 118.667 248.533 118.667C249.333 118.533 251.6 116.133 253.6 113.333C256.267 109.467 258.267 108 260.667 108C263.733 108 264.8 109.333 268.933 118.267C271.467 124 276.533 134.8 280.133 142.4C287.333 157.6 287.6 158.933 284.533 161.333C282 163.6 231.067 163.333 228.4 161.067C225.733 158.933 226.267 155.067 230.267 148C234.667 140.267 234 139.067 222.4 133.2C211.067 127.467 198.667 124.933 186.533 125.867C152.667 128.267 127.067 153.333 122.133 188.533C120.667 199.333 119.733 202.267 117.333 204.267C113.067 207.733 106.267 207.333 101.733 203.467C98.1333 200.4 98 199.733 98.2667 189.6C99.0667 147.333 129.467 112.133 173.867 102.133C177.6 101.2 177.6 101.2 177.067 92.2666C175.867 73.3332 169.333 66.2666 134 46.1332C90 21.1999 54.6667 2.53322 50 1.73322C42.9333 0.533223 38.1333 6.93322 40.8 13.9999C41.3333 15.1999 44.8 17.7332 48.5333 19.5999C54.4 22.5332 115.733 56.6666 127.6 63.4666C130 64.9332 132 66.3999 132 66.9332C132 68.3999 116.533 75.9999 113.733 75.9999C112.4 75.9999 109.467 74.7999 107.2 73.4666C103.067 70.9332 81.2 58.9332 60.6667 47.9999C54.8 44.7999 45.4667 39.7332 40 36.6666C23.6 27.3332 10.9333 21.3332 8.13333 21.3332C6.66667 21.3332 4.26667 22.6666 2.66667 24.2666C0 27.1999 0 28.2666 0 146.933C0 247.2 0.266667 267.333 1.86667 270.4C3.2 273.067 9.06667 276.667 22.9333 283.867C33.3333 289.333 57.8667 302.133 77.3333 312.4C96.8 322.533 114.8 331.2 117.6 331.6C121.733 332.267 124.533 331.067 137.6 323.733C145.867 318.933 156.667 312.8 161.6 310.133C174 303.2 177.333 299.067 177.333 290C177.333 282 176.667 281.2 167.2 278.133C163.333 276.933 156.4 273.467 151.6 270.667C146.8 267.733 142.267 265.333 141.733 265.333C141.2 265.333 138.667 268.4 136.133 272C131.333 279.2 127.467 280.533 123.6 276.267C122.533 275.067 119.2 267.067 116.267 258.667C113.333 250.267 109.333 239.867 107.467 235.467C103.467 226.4 103.067 221.867 106.4 220.267C109.6 218.533 158.4 218.4 161.467 220.133C165.067 222 164.533 226.667 159.867 233.733C157.6 237.2 156 240.933 156.267 242.267C156.8 245.333 169.333 252.8 178.667 255.6C190.133 259.067 206.533 258.533 218.533 254.267C246.133 244.533 264.133 221.733 267.333 192.4C268.8 179.2 275.2 174 284.8 178C291.2 180.667 292.8 186 290.933 199.2C289.2 212.267 285.867 222.4 279.467 233.733C267.867 254.533 244.133 273.333 223.333 278.533C210.8 281.733 210.667 281.733 210.667 289.733C210.667 293.867 211.467 297.867 212.667 299.6C213.867 301.2 224.133 308.267 235.733 315.067C263.6 331.867 264.8 332.4 270.533 331.6C273.2 331.333 294.533 320.933 318 308.667C341.467 296.4 365.333 283.867 371.2 280.933C388.533 271.733 386.667 287.467 386.667 147.867V26.7999L383.2 24.1332C381.2 22.5332 378.667 21.3332 377.6 21.3332C375.733 21.3332 341.2 39.7332 290.533 67.4666C282 72.1332 274.4 75.9999 273.467 75.9999C271.2 75.9999 256 68.1332 256 66.9332C256 65.4666 258.267 64.1332 298.667 41.8666C344.267 16.6666 345.333 15.8666 345.333 10.6666C345.333 5.99989 340.267 -0.00011043 336.4 -0.00011043C335.067 -0.00011043 332.533 0.79989 330.667 1.73322Z" fill="#11131A"/>
</svg>
