<svg width="36" height="32" viewBox="0 0 36 32" fill="none" xmlns="http://www.w3.org/2000/svg">
    <path d="M30.7815 0.661936C29.9003 1.12283 25.4817 3.6515 22.1553 5.59472C20.3307 6.65353 19.6108 7.65005 19.6108 9.11992C19.6108 9.63064 19.6729 9.97942 19.7722 10.0542C19.8466 10.1289 20.2438 10.2784 20.641 10.4029C21.0258 10.5275 21.7208 10.8389 22.1677 11.1005C22.6145 11.3746 23.0489 11.5863 23.1358 11.5863C23.2103 11.5739 23.4213 11.3496 23.6075 11.0881C23.8557 10.7268 24.0419 10.5898 24.2653 10.5898C24.5508 10.5898 24.6501 10.7144 25.0348 11.5489C25.2707 12.0846 25.7423 13.0936 26.0774 13.8036C26.7477 15.2236 26.7725 15.3482 26.487 15.5724C26.2512 15.7842 21.5098 15.7593 21.2616 15.5475C21.0134 15.3482 21.063 14.987 21.4354 14.3268C21.845 13.6043 21.7829 13.4922 20.7031 12.9441C19.6481 12.4084 18.4937 12.1718 17.3643 12.259C14.2116 12.4832 11.8286 14.825 11.3693 18.1135C11.2328 19.1225 11.1459 19.3966 10.9225 19.5834C10.5253 19.9073 9.89229 19.8699 9.47029 19.5087C9.13517 19.2222 9.12276 19.1599 9.14758 18.2132C9.22205 14.2645 12.052 10.9759 16.1851 10.0417C16.5327 9.95451 16.5327 9.95451 16.483 9.11992C16.3713 7.35109 15.7631 6.6909 12.474 4.80996C8.37804 2.48059 5.08888 0.736675 4.65447 0.661936C3.99664 0.549828 3.54981 1.14774 3.79804 1.80794C3.84769 1.92004 4.1704 2.15672 4.51794 2.33111C5.06406 2.60515 10.7735 5.79403 11.8782 6.42931C12.1016 6.56633 12.2878 6.70336 12.2878 6.75318C12.2878 6.8902 10.848 7.60023 10.5874 7.60023C10.4632 7.60023 10.1902 7.48812 9.97918 7.36355C9.59441 7.12688 7.55885 6.00579 5.64742 4.98435C5.1013 4.68539 4.23246 4.21205 3.72357 3.92555C2.19691 3.05359 1.01778 2.49305 0.757127 2.49305C0.620596 2.49305 0.397181 2.61761 0.248238 2.76709C0 3.04113 0 3.14079 0 14.2271C0 23.5944 0.0248238 25.4754 0.173767 25.7619C0.297886 26.011 0.84401 26.3473 2.13485 27.02C3.10298 27.5307 5.38677 28.7265 7.19891 29.6857C9.01105 30.6324 10.6867 31.442 10.9473 31.4794C11.3321 31.5417 11.5927 31.4296 12.8091 30.7445C13.5786 30.296 14.584 29.723 15.0432 29.4739C16.1975 28.8262 16.5078 28.44 16.5078 27.593C16.5078 26.8456 16.4458 26.7708 15.5645 26.4843C15.2046 26.3722 14.5592 26.0484 14.1123 25.7868C13.6655 25.5127 13.2435 25.2885 13.1939 25.2885C13.1442 25.2885 12.9084 25.575 12.6726 25.9113C12.2257 26.584 11.8658 26.7086 11.5058 26.3099C11.4065 26.1978 11.0962 25.4504 10.8232 24.6657C10.5501 23.8809 10.1778 22.9093 10.004 22.4982C9.63164 21.6512 9.59441 21.2277 9.90471 21.0782C10.2026 20.9163 14.7453 20.9038 15.0308 21.0657C15.3659 21.2401 15.3163 21.6761 14.8819 22.3363C14.6709 22.6602 14.5219 23.009 14.5468 23.1335C14.5964 23.42 15.7631 24.1176 16.632 24.3792C17.6994 24.703 19.2261 24.6532 20.3431 24.2546C22.9124 23.3453 24.588 21.2152 24.8859 18.4748C25.0224 17.2416 25.6182 16.7558 26.5118 17.1295C27.1076 17.3786 27.2566 17.8769 27.0828 19.1101C26.9214 20.3308 26.6111 21.2775 26.0154 22.3363C24.9355 24.2795 22.7262 26.0359 20.79 26.5217C19.6232 26.8207 19.6108 26.8207 19.6108 27.5681C19.6108 27.9542 19.6853 28.3279 19.797 28.4898C19.9087 28.6393 20.8644 29.2995 21.9443 29.9348C24.5383 31.5043 24.6501 31.5541 25.1838 31.4794C25.432 31.4545 27.4179 30.4829 29.6024 29.3369C31.7869 28.1909 34.0086 27.02 34.5548 26.7459C36.1683 25.8864 35.9945 27.3563 35.9945 14.3143V3.00376L35.6718 2.75463C35.4857 2.60515 35.2498 2.49305 35.1505 2.49305C34.9768 2.49305 31.7621 4.21205 27.0456 6.80301C26.2512 7.23899 25.5437 7.60023 25.4568 7.60023C25.2458 7.60023 23.8309 6.86529 23.8309 6.75318C23.8309 6.61616 24.0419 6.49159 27.8027 4.41135C32.0476 2.05707 32.1468 1.98233 32.1468 1.49652C32.1468 1.06054 31.6752 0.5 31.3153 0.5C31.1911 0.5 30.9553 0.574739 30.7815 0.661936Z"
          fill="#202842"/>
</svg>
