<svg width="285" height="37" viewBox="0 0 285 37" fill="none" xmlns="http://www.w3.org/2000/svg">
<path d="M77.2978 30.5V27.252H79.8738V14.148H77.2978V10.9H87.3778C88.5724 10.9 89.6084 11.1053 90.4858 11.516C91.3818 11.908 92.0724 12.4773 92.5578 13.224C93.0618 13.952 93.3138 14.8293 93.3138 15.856V16.136C93.3138 17.032 93.1458 17.7693 92.8098 18.348C92.4738 18.908 92.0724 19.3467 91.6058 19.664C91.1578 19.9627 90.7284 20.1773 90.3178 20.308V20.812C90.7284 20.924 91.1764 21.1387 91.6618 21.456C92.1471 21.7547 92.5578 22.1933 92.8938 22.772C93.2484 23.3507 93.4258 24.1067 93.4258 25.04V25.32C93.4258 26.4027 93.1738 27.336 92.6698 28.12C92.1658 28.8853 91.4658 29.4733 90.5698 29.884C89.6924 30.2947 88.6658 30.5 87.4898 30.5H77.2978ZM83.5698 27.14H87.0418C87.8444 27.14 88.4884 26.944 88.9738 26.552C89.4778 26.16 89.7298 25.6 89.7298 24.872V24.592C89.7298 23.864 89.4871 23.304 89.0018 22.912C88.5164 22.52 87.8631 22.324 87.0418 22.324H83.5698V27.14ZM83.5698 18.964H86.9858C87.7511 18.964 88.3764 18.768 88.8618 18.376C89.3658 17.984 89.6178 17.4427 89.6178 16.752V16.472C89.6178 15.7627 89.3751 15.2213 88.8898 14.848C88.4044 14.456 87.7698 14.26 86.9858 14.26H83.5698V18.964ZM103.172 30.892C101.79 30.892 100.549 30.612 99.4475 30.052C98.3462 29.492 97.4782 28.68 96.8435 27.616C96.2088 26.552 95.8915 25.2733 95.8915 23.78V23.332C95.8915 21.8387 96.2088 20.56 96.8435 19.496C97.4782 18.432 98.3462 17.62 99.4475 17.06C100.549 16.5 101.79 16.22 103.172 16.22C104.553 16.22 105.794 16.5 106.896 17.06C107.997 17.62 108.865 18.432 109.5 19.496C110.134 20.56 110.452 21.8387 110.452 23.332V23.78C110.452 25.2733 110.134 26.552 109.5 27.616C108.865 28.68 107.997 29.492 106.896 30.052C105.794 30.612 104.553 30.892 103.172 30.892ZM103.172 27.756C104.254 27.756 105.15 27.4107 105.86 26.72C106.569 26.0107 106.924 25.0027 106.924 23.696V23.416C106.924 22.1093 106.569 21.1107 105.86 20.42C105.169 19.7107 104.273 19.356 103.172 19.356C102.089 19.356 101.193 19.7107 100.484 20.42C99.7742 21.1107 99.4195 22.1093 99.4195 23.416V23.696C99.4195 25.0027 99.7742 26.0107 100.484 26.72C101.193 27.4107 102.089 27.756 103.172 27.756ZM120.316 30.892C118.935 30.892 117.693 30.612 116.592 30.052C115.491 29.492 114.623 28.68 113.988 27.616C113.353 26.552 113.036 25.2733 113.036 23.78V23.332C113.036 21.8387 113.353 20.56 113.988 19.496C114.623 18.432 115.491 17.62 116.592 17.06C117.693 16.5 118.935 16.22 120.316 16.22C121.697 16.22 122.939 16.5 124.04 17.06C125.141 17.62 126.009 18.432 126.644 19.496C127.279 20.56 127.596 21.8387 127.596 23.332V23.78C127.596 25.2733 127.279 26.552 126.644 27.616C126.009 28.68 125.141 29.492 124.04 30.052C122.939 30.612 121.697 30.892 120.316 30.892ZM120.316 27.756C121.399 27.756 122.295 27.4107 123.004 26.72C123.713 26.0107 124.068 25.0027 124.068 23.696V23.416C124.068 22.1093 123.713 21.1107 123.004 20.42C122.313 19.7107 121.417 19.356 120.316 19.356C119.233 19.356 118.337 19.7107 117.628 20.42C116.919 21.1107 116.564 22.1093 116.564 23.416V23.696C116.564 25.0027 116.919 26.0107 117.628 26.72C118.337 27.4107 119.233 27.756 120.316 27.756ZM130.853 30.5V10.9H134.381V21.736H134.885L139.477 16.612H144.069L137.657 23.332L144.293 30.5H139.757L134.885 24.984H134.381V30.5H130.853ZM153.655 30.5V10.9H166.255V14.26H157.351V18.936H165.471V22.296H157.351V27.14H166.423V30.5H153.655ZM168.039 30.5L173.079 23.5L168.095 16.612H172.183L175.347 21.232H175.851L179.015 16.612H183.103L178.119 23.5L183.159 30.5H179.015L175.851 25.824H175.347L172.183 30.5H168.039ZM191.463 30.892C190.119 30.892 188.896 30.612 187.795 30.052C186.712 29.492 185.853 28.68 185.219 27.616C184.584 26.552 184.267 25.264 184.267 23.752V23.36C184.267 21.848 184.584 20.56 185.219 19.496C185.853 18.432 186.712 17.62 187.795 17.06C188.896 16.5 190.119 16.22 191.463 16.22C192.788 16.22 193.927 16.4533 194.879 16.92C195.831 17.3867 196.596 18.0307 197.175 18.852C197.772 19.6547 198.164 20.5693 198.351 21.596L194.935 22.324C194.86 21.764 194.692 21.26 194.431 20.812C194.169 20.364 193.796 20.0093 193.311 19.748C192.844 19.4867 192.256 19.356 191.547 19.356C190.837 19.356 190.193 19.5147 189.615 19.832C189.055 20.1307 188.607 20.588 188.271 21.204C187.953 21.8013 187.795 22.5387 187.795 23.416V23.696C187.795 24.5733 187.953 25.32 188.271 25.936C188.607 26.5333 189.055 26.9907 189.615 27.308C190.193 27.6067 190.837 27.756 191.547 27.756C192.611 27.756 193.413 27.4853 193.955 26.944C194.515 26.384 194.869 25.656 195.019 24.76L198.435 25.572C198.192 26.5613 197.772 27.4667 197.175 28.288C196.596 29.0907 195.831 29.7253 194.879 30.192C193.927 30.6587 192.788 30.892 191.463 30.892ZM201.345 30.5V10.9H204.873V18.32H205.377C205.526 18.0213 205.759 17.7227 206.077 17.424C206.394 17.1253 206.814 16.8827 207.337 16.696C207.878 16.4907 208.559 16.388 209.381 16.388C210.463 16.388 211.406 16.64 212.209 17.144C213.03 17.6293 213.665 18.3107 214.113 19.188C214.561 20.0467 214.785 21.0547 214.785 22.212V30.5H211.257V22.492C211.257 21.4467 210.995 20.6627 210.473 20.14C209.969 19.6173 209.241 19.356 208.289 19.356C207.206 19.356 206.366 19.72 205.769 20.448C205.171 21.1573 204.873 22.156 204.873 23.444V30.5H201.345ZM222.911 30.892C221.921 30.892 221.035 30.724 220.251 30.388C219.467 30.0333 218.841 29.5293 218.375 28.876C217.927 28.204 217.703 27.392 217.703 26.44C217.703 25.488 217.927 24.6947 218.375 24.06C218.841 23.4067 219.476 22.9213 220.279 22.604C221.1 22.268 222.033 22.1 223.079 22.1H226.887V21.316C226.887 20.6627 226.681 20.1307 226.271 19.72C225.86 19.2907 225.207 19.076 224.311 19.076C223.433 19.076 222.78 19.2813 222.351 19.692C221.921 20.084 221.641 20.5973 221.511 21.232L218.263 20.14C218.487 19.4307 218.841 18.7867 219.327 18.208C219.831 17.6107 220.493 17.1347 221.315 16.78C222.155 16.4067 223.172 16.22 224.367 16.22C226.196 16.22 227.643 16.6773 228.707 17.592C229.771 18.5067 230.303 19.832 230.303 21.568V26.748C230.303 27.308 230.564 27.588 231.087 27.588H232.207V30.5H229.855C229.164 30.5 228.595 30.332 228.147 29.996C227.699 29.66 227.475 29.212 227.475 28.652V28.624H226.943C226.868 28.848 226.7 29.1467 226.439 29.52C226.177 29.8747 225.767 30.192 225.207 30.472C224.647 30.752 223.881 30.892 222.911 30.892ZM223.527 28.036C224.516 28.036 225.319 27.7653 225.935 27.224C226.569 26.664 226.887 25.9267 226.887 25.012V24.732H223.331C222.677 24.732 222.164 24.872 221.791 25.152C221.417 25.432 221.231 25.824 221.231 26.328C221.231 26.832 221.427 27.2427 221.819 27.56C222.211 27.8773 222.78 28.036 223.527 28.036ZM234.786 30.5V16.612H238.258V18.432H238.762C238.986 17.9467 239.406 17.4893 240.022 17.06C240.638 16.612 241.572 16.388 242.822 16.388C243.905 16.388 244.848 16.64 245.65 17.144C246.472 17.6293 247.106 18.3107 247.554 19.188C248.002 20.0467 248.226 21.0547 248.226 22.212V30.5H244.698V22.492C244.698 21.4467 244.437 20.6627 243.914 20.14C243.41 19.6173 242.682 19.356 241.73 19.356C240.648 19.356 239.808 19.72 239.21 20.448C238.613 21.1573 238.314 22.156 238.314 23.444V30.5H234.786ZM251.368 23.612V23.164C251.368 21.708 251.657 20.4667 252.236 19.44C252.815 18.3947 253.58 17.6013 254.532 17.06C255.503 16.5 256.557 16.22 257.696 16.22C258.965 16.22 259.927 16.444 260.58 16.892C261.233 17.34 261.709 17.8067 262.008 18.292H262.512V16.612H265.984V32.964C265.984 33.916 265.704 34.672 265.144 35.232C264.584 35.8107 263.837 36.1 262.904 36.1H253.608V33.02H261.672C262.195 33.02 262.456 32.74 262.456 32.18V28.568H261.952C261.765 28.8667 261.504 29.1747 261.168 29.492C260.832 29.7907 260.384 30.0427 259.824 30.248C259.264 30.4533 258.555 30.556 257.696 30.556C256.557 30.556 255.503 30.2853 254.532 29.744C253.58 29.184 252.815 28.3907 252.236 27.364C251.657 26.3187 251.368 25.068 251.368 23.612ZM258.704 27.476C259.787 27.476 260.692 27.1307 261.42 26.44C262.148 25.7493 262.512 24.7787 262.512 23.528V23.248C262.512 21.9787 262.148 21.008 261.42 20.336C260.711 19.6453 259.805 19.3 258.704 19.3C257.621 19.3 256.716 19.6453 255.988 20.336C255.26 21.008 254.896 21.9787 254.896 23.248V23.528C254.896 24.7787 255.26 25.7493 255.988 26.44C256.716 27.1307 257.621 27.476 258.704 27.476ZM276.224 30.892C274.842 30.892 273.62 30.6027 272.556 30.024C271.51 29.4267 270.689 28.596 270.092 27.532C269.513 26.4493 269.224 25.18 269.224 23.724V23.388C269.224 21.932 269.513 20.672 270.092 19.608C270.67 18.5253 271.482 17.6947 272.528 17.116C273.573 16.5187 274.786 16.22 276.168 16.22C277.53 16.22 278.716 16.528 279.724 17.144C280.732 17.7413 281.516 18.5813 282.076 19.664C282.636 20.728 282.916 21.9693 282.916 23.388V24.592H272.808C272.845 25.544 273.2 26.3187 273.872 26.916C274.544 27.5133 275.365 27.812 276.336 27.812C277.325 27.812 278.053 27.5973 278.52 27.168C278.986 26.7387 279.341 26.2627 279.584 25.74L282.468 27.252C282.206 27.7373 281.824 28.2693 281.32 28.848C280.834 29.408 280.181 29.8933 279.36 30.304C278.538 30.696 277.493 30.892 276.224 30.892ZM272.836 21.96H279.332C279.257 21.1573 278.93 20.5133 278.352 20.028C277.792 19.5427 277.054 19.3 276.14 19.3C275.188 19.3 274.432 19.5427 273.872 20.028C273.312 20.5133 272.966 21.1573 272.836 21.96Z" fill="#4D556F"/>
<path d="M48.18 1.24888C48.4731 2.44773 48.3798 4.32594 47.9802 5.47152C47.0078 8.25554 45.103 9.85401 41.5863 10.8264C38.5492 11.6656 37.0573 12.4249 35.5787 13.9301C34.6862 14.8226 33.887 16.1147 33.6339 17.1004C33.5406 17.4601 33.4207 17.7398 33.3675 17.7398C33.2476 17.7398 33.0078 16.4344 32.9012 15.2755C32.7414 13.5039 33.2476 11.2926 34.1401 9.76077C34.6862 8.815 35.925 7.49626 36.8042 6.89683C37.6034 6.364 39.3085 5.80454 41.1734 5.48484C43.5311 5.08522 44.8232 4.60568 45.9288 3.72651C46.5682 3.23365 47.4074 1.95487 47.6339 1.16895C47.7271 0.835938 47.847 0.556202 47.9003 0.556202C47.9669 0.556202 48.0868 0.8759 48.18 1.24888ZM20.3132 15.0757C22.8708 15.3421 25.2685 16.2612 27.2133 17.7265C29.4112 19.3783 30.9431 21.6028 31.9288 24.6C32.3684 25.9187 32.3684 25.972 32.4217 28.7294L32.4617 31.5267L32.102 31.0605C31.5559 30.3545 30.0773 28.9558 29.1981 28.3031C25.4017 25.5058 20.22 24.56 14.8651 25.6656C11.9079 26.2784 8.09821 27.677 3.10296 29.9948C1.95739 30.5276 0.984984 30.9406 0.945022 30.9139C0.918381 30.8873 1.01162 30.4344 1.15815 29.9282C1.30468 29.4087 1.90411 27.1708 2.49022 24.933C3.08965 22.6951 3.62247 20.8036 3.70239 20.7103C3.92884 20.4306 6.61962 18.8588 8.45787 17.953C12.3741 15.9815 15.2647 15.129 18.6082 14.9558C18.808 14.9558 19.5673 15.0091 20.3132 15.0757ZM49.4588 15.2888C52.5625 15.835 56.4122 17.4468 60.6481 19.9644L61.887 20.697L62.1401 21.5762C62.2866 22.069 62.7128 23.6009 63.0858 24.9996C63.4721 26.3849 63.9783 28.2765 64.2314 29.1823C64.4845 30.1014 64.6577 30.8607 64.631 30.9006C64.5911 30.9273 64.2447 30.8074 63.8584 30.6209C58.1172 27.9168 53.4816 26.2118 50.0449 25.5724C47.9935 25.1861 44.5168 25.1594 42.8518 25.5191C39.0421 26.3316 36.0716 28.0633 33.6738 30.8607L33.1011 31.5267L33.1543 28.6628C33.1943 25.9187 33.2209 25.7455 33.6072 24.5334C35.8051 17.58 42.0126 13.9701 49.4588 15.2888ZM21.9916 26.5981C24.456 26.9977 26.8404 27.9168 28.7319 29.1956C30.024 30.0881 31.5292 31.5933 32.0487 32.5524C32.7014 33.7113 32.9545 33.7379 33.5273 32.6323C33.7937 32.1394 34.3798 31.3802 34.9793 30.7807C37.0306 28.7027 39.9345 27.2641 43.278 26.6647C48.0069 25.8121 52.749 26.9178 63.1791 31.2869C65.1106 32.0995 65.0573 32.0462 65.4702 33.6447C65.6034 34.1242 65.5901 34.1509 65.3104 34.0843C65.1505 34.0576 63.6053 33.658 61.887 33.2184C51.8432 30.6209 46.5016 30.0348 42.5054 31.0605C40.494 31.58 37.8166 33.0719 37.9764 33.5781C38.0697 33.8845 37.337 34.737 36.671 35.0966C36.1515 35.3764 35.9117 35.3897 32.9945 35.4296C29.318 35.4829 28.9717 35.4296 28.1058 34.5505C27.6129 34.0576 27.5197 33.8978 27.5863 33.6047C27.6529 33.2983 27.573 33.1918 26.827 32.6989C24.3494 31.0338 21.0192 30.3278 17.0497 30.6475C13.0402 30.9806 9.17718 31.7531 1.17147 33.8711C0.572044 34.031 0.0392146 34.1375 0.0125733 34.0976C-0.0939919 33.991 0.505438 32.3393 0.731889 32.0995C0.971661 31.8597 3.35606 30.834 6.40649 29.6618C11.7747 27.5971 13.7595 27.011 17.2628 26.4915C18.1286 26.3583 20.9127 26.4249 21.9916 26.5981Z" fill="#1C274C"/>
<path d="M15.9307 28.6228C14.1191 28.9025 10.5625 29.8349 7.41882 30.8606C5.94023 31.3535 4.74137 31.7664 4.76801 31.7931C4.79466 31.8197 6.12672 31.5133 7.73852 31.1137C10.6824 30.3811 13.1867 29.8882 15.5311 29.5818C17.2495 29.3554 21.2057 29.3554 22.4578 29.5818C23.9764 29.8483 26.1077 30.6075 27.6262 31.3934C28.3722 31.7931 28.9849 32.0994 28.9849 32.0595C28.9849 31.9662 27.3465 30.8606 26.5606 30.421C25.1486 29.6484 23.3237 28.9424 21.965 28.676C20.3532 28.343 17.8755 28.3164 15.9307 28.6228Z" fill="#1C274C"/>
<path d="M43.9841 28.596C41.8528 29.0089 39.8281 29.8748 37.6701 31.3267C36.3248 32.2325 36.0584 32.4989 37.1506 31.8462C42.0127 28.9823 46.8214 28.6626 55.6797 30.6074C57.4646 30.9937 59.6758 31.5532 60.555 31.8196C60.7282 31.8729 60.7282 31.8729 60.555 31.7397C60.222 31.4999 55.28 29.9014 53.3619 29.4085C50.6178 28.7159 49.3524 28.5161 47.1012 28.4628C45.6226 28.4228 44.7301 28.4628 43.9841 28.596Z" fill="#1C274C"/>
</svg>
