<svg width="256" height="32" viewBox="0 0 256 32" fill="none" xmlns="http://www.w3.org/2000/svg">
    <path d="M30.7815 0.661936C29.9003 1.12283 25.4817 3.6515 22.1553 5.59472C20.3307 6.65353 19.6108 7.65005 19.6108 9.11992C19.6108 9.63064 19.6729 9.97942 19.7722 10.0542C19.8466 10.1289 20.2438 10.2784 20.641 10.4029C21.0258 10.5275 21.7208 10.8389 22.1677 11.1005C22.6145 11.3746 23.0489 11.5863 23.1358 11.5863C23.2103 11.5739 23.4213 11.3496 23.6075 11.0881C23.8557 10.7268 24.0419 10.5898 24.2653 10.5898C24.5508 10.5898 24.6501 10.7144 25.0348 11.5489C25.2707 12.0846 25.7423 13.0936 26.0774 13.8036C26.7477 15.2236 26.7725 15.3482 26.487 15.5724C26.2512 15.7842 21.5098 15.7593 21.2616 15.5475C21.0134 15.3482 21.063 14.987 21.4354 14.3268C21.845 13.6043 21.7829 13.4922 20.7031 12.9441C19.6481 12.4084 18.4937 12.1718 17.3643 12.259C14.2116 12.4832 11.8286 14.825 11.3693 18.1135C11.2328 19.1225 11.1459 19.3966 10.9225 19.5834C10.5253 19.9073 9.89229 19.8699 9.47029 19.5087C9.13517 19.2222 9.12276 19.1599 9.14758 18.2132C9.22205 14.2645 12.052 10.9759 16.1851 10.0417C16.5327 9.95451 16.5327 9.95451 16.483 9.11992C16.3713 7.35109 15.7631 6.6909 12.474 4.80996C8.37804 2.48059 5.08888 0.736675 4.65447 0.661936C3.99664 0.549828 3.54981 1.14774 3.79804 1.80794C3.84769 1.92004 4.1704 2.15672 4.51794 2.33111C5.06406 2.60515 10.7735 5.79403 11.8782 6.42931C12.1016 6.56633 12.2878 6.70336 12.2878 6.75318C12.2878 6.8902 10.848 7.60023 10.5874 7.60023C10.4632 7.60023 10.1902 7.48812 9.97918 7.36355C9.59441 7.12688 7.55885 6.00579 5.64742 4.98435C5.1013 4.68539 4.23246 4.21205 3.72357 3.92555C2.19691 3.05359 1.01778 2.49305 0.757127 2.49305C0.620596 2.49305 0.397181 2.61761 0.248238 2.76709C0 3.04113 0 3.14079 0 14.2271C0 23.5944 0.0248238 25.4754 0.173767 25.7619C0.297886 26.011 0.84401 26.3473 2.13485 27.02C3.10298 27.5307 5.38677 28.7265 7.19891 29.6857C9.01105 30.6324 10.6867 31.442 10.9473 31.4794C11.3321 31.5417 11.5927 31.4296 12.8091 30.7445C13.5786 30.296 14.584 29.723 15.0432 29.4739C16.1975 28.8262 16.5078 28.44 16.5078 27.593C16.5078 26.8456 16.4458 26.7708 15.5645 26.4843C15.2046 26.3722 14.5592 26.0484 14.1123 25.7868C13.6655 25.5127 13.2435 25.2885 13.1939 25.2885C13.1442 25.2885 12.9084 25.575 12.6726 25.9113C12.2257 26.584 11.8658 26.7086 11.5058 26.3099C11.4065 26.1978 11.0962 25.4504 10.8232 24.6657C10.5501 23.8809 10.1778 22.9093 10.004 22.4982C9.63164 21.6512 9.59441 21.2277 9.90471 21.0782C10.2026 20.9163 14.7453 20.9038 15.0308 21.0657C15.3659 21.2401 15.3163 21.6761 14.8819 22.3363C14.6709 22.6602 14.5219 23.009 14.5468 23.1335C14.5964 23.42 15.7631 24.1176 16.632 24.3792C17.6994 24.703 19.2261 24.6532 20.3431 24.2546C22.9124 23.3453 24.588 21.2152 24.8859 18.4748C25.0224 17.2416 25.6182 16.7558 26.5118 17.1295C27.1076 17.3786 27.2566 17.8769 27.0828 19.1101C26.9214 20.3308 26.6111 21.2775 26.0154 22.3363C24.9355 24.2795 22.7262 26.0359 20.79 26.5217C19.6232 26.8207 19.6108 26.8207 19.6108 27.5681C19.6108 27.9542 19.6853 28.3279 19.797 28.4898C19.9087 28.6393 20.8644 29.2995 21.9443 29.9348C24.5383 31.5043 24.6501 31.5541 25.1838 31.4794C25.432 31.4545 27.4179 30.4829 29.6024 29.3369C31.7869 28.1909 34.0086 27.02 34.5548 26.7459C36.1683 25.8864 35.9945 27.3563 35.9945 14.3143V3.00376L35.6718 2.75463C35.4857 2.60515 35.2498 2.49305 35.1505 2.49305C34.9768 2.49305 31.7621 4.21205 27.0456 6.80301C26.2512 7.23899 25.5437 7.60023 25.4568 7.60023C25.2458 7.60023 23.8309 6.86529 23.8309 6.75318C23.8309 6.61616 24.0419 6.49159 27.8027 4.41135C32.0476 2.05707 32.1468 1.98233 32.1468 1.49652C32.1468 1.06054 31.6752 0.5 31.3153 0.5C31.1911 0.5 30.9553 0.574739 30.7815 0.661936Z"
          fill="#202842"/>
    <path d="M52 24.9444V21.7222H54.5557V8.72222H52V5.5H62.0006C63.1859 5.5 64.2138 5.7037 65.0842 6.11111C65.9731 6.5 66.6584 7.06481 67.1399 7.80556C67.6399 8.52778 67.8899 9.39815 67.8899 10.4167V10.6944C67.8899 11.5833 67.7233 12.3148 67.3899 12.8889C67.0566 13.4444 66.6584 13.8796 66.1954 14.1944C65.7509 14.4907 65.325 14.7037 64.9175 14.8333V15.3333C65.325 15.4444 65.7695 15.6574 66.2509 15.9722C66.7325 16.2686 67.1399 16.7037 67.4732 17.2778C67.8252 17.8519 68.0011 18.6019 68.0011 19.5278V19.8056C68.0011 20.8797 67.751 21.8056 67.251 22.5833C66.751 23.3426 66.0565 23.9259 65.1675 24.3333C64.2971 24.7408 63.2785 24.9444 62.1118 24.9444H52ZM58.2226 21.6111H61.6673C62.4637 21.6111 63.1026 21.4167 63.5841 21.0278C64.0841 20.6389 64.3341 20.0833 64.3341 19.3611V19.0833C64.3341 18.3611 64.0935 17.8056 63.6119 17.4167C63.1304 17.0278 62.4822 16.8333 61.6673 16.8333H58.2226V21.6111ZM58.2226 13.5H61.6117C62.3711 13.5 62.9915 13.3056 63.473 12.9167C63.973 12.5278 64.223 11.9907 64.223 11.3056V11.0278C64.223 10.3241 63.9823 9.78703 63.5008 9.41667C63.0193 9.02778 62.3896 8.83333 61.6117 8.83333H58.2226V13.5ZM77.6702 25.3333C76.2997 25.3333 75.0681 25.0556 73.9755 24.5C72.8828 23.9444 72.0217 23.1389 71.392 22.0833C70.7623 21.0278 70.4475 19.7592 70.4475 18.2778V17.8333C70.4475 16.3519 70.7623 15.0833 71.392 14.0278C72.0217 12.9722 72.8828 12.1667 73.9755 11.6111C75.0681 11.0556 76.2997 10.7778 77.6702 10.7778C79.0406 10.7778 80.2722 11.0556 81.3649 11.6111C82.4575 12.1667 83.3187 12.9722 83.9484 14.0278C84.5781 15.0833 84.8929 16.3519 84.8929 17.8333V18.2778C84.8929 19.7592 84.5781 21.0278 83.9484 22.0833C83.3187 23.1389 82.4575 23.9444 81.3649 24.5C80.2722 25.0556 79.0406 25.3333 77.6702 25.3333ZM77.6702 22.2222C78.7444 22.2222 79.6333 21.8797 80.337 21.1944C81.0407 20.4908 81.3926 19.4908 81.3926 18.1944V17.9167C81.3926 16.6203 81.0407 15.6297 80.337 14.9444C79.6518 14.2407 78.7628 13.8889 77.6702 13.8889C76.596 13.8889 75.707 14.2407 75.0033 14.9444C74.2996 15.6297 73.9477 16.6203 73.9477 17.9167V18.1944C73.9477 19.4908 74.2996 20.4908 75.0033 21.1944C75.707 21.8797 76.596 22.2222 77.6702 22.2222ZM94.6798 25.3333C93.3093 25.3333 92.0777 25.0556 90.9851 24.5C89.8924 23.9444 89.0313 23.1389 88.4016 22.0833C87.7719 21.0278 87.4571 19.7592 87.4571 18.2778V17.8333C87.4571 16.3519 87.7719 15.0833 88.4016 14.0278C89.0313 12.9722 89.8924 12.1667 90.9851 11.6111C92.0777 11.0556 93.3093 10.7778 94.6798 10.7778C96.0502 10.7778 97.2818 11.0556 98.3745 11.6111C99.4671 12.1667 100.328 12.9722 100.958 14.0278C101.588 15.0833 101.902 16.3519 101.902 17.8333V18.2778C101.902 19.7592 101.588 21.0278 100.958 22.0833C100.328 23.1389 99.4671 23.9444 98.3745 24.5C97.2818 25.0556 96.0502 25.3333 94.6798 25.3333ZM94.6798 22.2222C95.7539 22.2222 96.6429 21.8797 97.3466 21.1944C98.0503 20.4908 98.4022 19.4908 98.4022 18.1944V17.9167C98.4022 16.6203 98.0503 15.6297 97.3466 14.9444C96.6614 14.2407 95.7724 13.8889 94.6798 13.8889C93.6056 13.8889 92.7166 14.2407 92.0129 14.9444C91.3092 15.6297 90.9573 16.6203 90.9573 17.9167V18.1944C90.9573 19.4908 91.3092 20.4908 92.0129 21.1944C92.7166 21.8797 93.6056 22.2222 94.6798 22.2222ZM105.133 24.9444V5.5H108.634V16.25H109.134L113.689 11.1667H118.245L111.884 17.8333L118.468 24.9444H113.967L109.134 19.4722H108.634V24.9444H105.133ZM127.756 24.9444V5.5H140.257V8.83333H131.423V13.4722H139.479V16.8056H131.423V21.6111H140.424V24.9444H127.756ZM142.027 24.9444L147.027 18L142.082 11.1667H146.138L149.277 15.75H149.777L152.917 11.1667H156.972L152.028 18L157.028 24.9444H152.917L149.777 20.3056H149.277L146.138 24.9444H142.027ZM165.267 25.3333C163.933 25.3333 162.72 25.0556 161.627 24.5C160.553 23.9444 159.701 23.1389 159.072 22.0833C158.442 21.0278 158.127 19.75 158.127 18.25V17.8611C158.127 16.3611 158.442 15.0833 159.072 14.0278C159.701 12.9722 160.553 12.1667 161.627 11.6111C162.72 11.0556 163.933 10.7778 165.267 10.7778C166.581 10.7778 167.711 11.0093 168.656 11.4722C169.6 11.9352 170.359 12.5741 170.934 13.3889C171.526 14.1852 171.915 15.0926 172.1 16.1111L168.711 16.8333C168.637 16.2778 168.47 15.7778 168.211 15.3333C167.951 14.8889 167.581 14.537 167.1 14.2778C166.637 14.0185 166.053 13.8889 165.35 13.8889C164.646 13.8889 164.007 14.0463 163.433 14.3611C162.878 14.6574 162.433 15.1111 162.1 15.7222C161.784 16.3148 161.627 17.0463 161.627 17.9167V18.1944C161.627 19.0648 161.784 19.8056 162.1 20.4167C162.433 21.0092 162.878 21.463 163.433 21.7778C164.007 22.0741 164.646 22.2222 165.35 22.2222C166.406 22.2222 167.201 21.9537 167.739 21.4167C168.295 20.8611 168.646 20.1389 168.795 19.25L172.184 20.0556C171.943 21.037 171.526 21.9352 170.934 22.75C170.359 23.5463 169.6 24.1759 168.656 24.6389C167.711 25.1019 166.581 25.3333 165.267 25.3333ZM175.071 24.9444V5.5H178.571V12.8611H179.071C179.219 12.5648 179.451 12.2685 179.766 11.9722C180.08 11.6759 180.497 11.4352 181.016 11.25C181.552 11.0463 182.229 10.9444 183.044 10.9444C184.118 10.9444 185.053 11.1944 185.849 11.6944C186.664 12.1759 187.294 12.8519 187.738 13.7222C188.183 14.5741 188.405 15.5741 188.405 16.7222V24.9444H184.905V17C184.905 15.963 184.646 15.1852 184.127 14.6667C183.627 14.1481 182.905 13.8889 181.96 13.8889C180.886 13.8889 180.052 14.25 179.46 14.9722C178.868 15.6759 178.571 16.6667 178.571 17.9444V24.9444H175.071ZM196.467 25.3333C195.486 25.3333 194.606 25.1667 193.828 24.8333C193.05 24.4814 192.43 23.9814 191.967 23.3333C191.522 22.6667 191.3 21.8611 191.3 20.9167C191.3 19.9722 191.522 19.1852 191.967 18.5556C192.43 17.9074 193.059 17.4259 193.856 17.1111C194.67 16.7778 195.597 16.6111 196.634 16.6111H200.412V15.8333C200.412 15.1852 200.208 14.6574 199.801 14.25C199.393 13.8241 198.745 13.6111 197.856 13.6111C196.986 13.6111 196.337 13.8148 195.912 14.2222C195.486 14.6111 195.208 15.1203 195.078 15.75L191.856 14.6667C192.078 13.963 192.43 13.3241 192.911 12.75C193.411 12.1574 194.069 11.6852 194.884 11.3333C195.717 10.963 196.726 10.7778 197.912 10.7778C199.726 10.7778 201.162 11.2315 202.218 12.1389C203.273 13.0463 203.801 14.3611 203.801 16.0833V21.2222C203.801 21.7778 204.06 22.0556 204.579 22.0556H205.69V24.9444H203.357C202.671 24.9444 202.106 24.7778 201.662 24.4444C201.217 24.1111 200.995 23.6667 200.995 23.1111V23.0833H200.467C200.393 23.3056 200.226 23.6019 199.967 23.9722C199.708 24.3241 199.301 24.6389 198.745 24.9167C198.19 25.1944 197.431 25.3333 196.467 25.3333ZM197.078 22.5C198.06 22.5 198.856 22.2314 199.467 21.6944C200.097 21.1389 200.412 20.4074 200.412 19.5V19.2222H196.884C196.236 19.2222 195.726 19.3611 195.356 19.6389C194.986 19.9167 194.8 20.3056 194.8 20.8056C194.8 21.3056 194.995 21.713 195.384 22.0278C195.773 22.3426 196.337 22.5 197.078 22.5ZM208.249 24.9444V11.1667H211.693V12.9722H212.193C212.416 12.4907 212.832 12.037 213.444 11.6111C214.055 11.1667 214.981 10.9444 216.222 10.9444C217.296 10.9444 218.232 11.1944 219.027 11.6944C219.843 12.1759 220.472 12.8519 220.916 13.7222C221.361 14.5741 221.583 15.5741 221.583 16.7222V24.9444H218.083V17C218.083 15.963 217.824 15.1852 217.305 14.6667C216.805 14.1481 216.083 13.8889 215.138 13.8889C214.065 13.8889 213.231 14.25 212.638 14.9722C212.046 15.6759 211.749 16.6667 211.749 17.9444V24.9444H208.249ZM224.7 18.1111V17.6667C224.7 16.2222 224.988 14.9907 225.561 13.9722C226.136 12.9352 226.895 12.1481 227.839 11.6111C228.803 11.0556 229.849 10.7778 230.978 10.7778C232.238 10.7778 233.192 11 233.84 11.4444C234.489 11.8889 234.961 12.3519 235.257 12.8333H235.757V11.1667H239.201V27.3889C239.201 28.3333 238.923 29.0833 238.368 29.6389C237.812 30.213 237.072 30.5 236.145 30.5H226.923V27.4444H234.923C235.442 27.4444 235.701 27.1667 235.701 26.6111V23.0278H235.201C235.016 23.3241 234.757 23.6297 234.423 23.9444C234.09 24.2408 233.645 24.4908 233.09 24.6944C232.534 24.8981 231.831 25 230.978 25C229.849 25 228.803 24.7314 227.839 24.1944C226.895 23.6389 226.136 22.8519 225.561 21.8333C224.988 20.7963 224.7 19.5556 224.7 18.1111ZM231.979 21.9444C233.053 21.9444 233.951 21.6019 234.673 20.9167C235.395 20.2314 235.757 19.2686 235.757 18.0278V17.75C235.757 16.4908 235.395 15.5278 234.673 14.8611C233.97 14.1759 233.072 13.8333 231.979 13.8333C230.905 13.8333 230.006 14.1759 229.284 14.8611C228.562 15.5278 228.201 16.4908 228.201 17.75V18.0278C228.201 19.2686 228.562 20.2314 229.284 20.9167C230.006 21.6019 230.905 21.9444 231.979 21.9444ZM249.361 25.3333C247.99 25.3333 246.777 25.0463 245.722 24.4722C244.684 23.8797 243.869 23.0556 243.277 22C242.702 20.9259 242.416 19.6667 242.416 18.2222V17.8889C242.416 16.4444 242.702 15.1944 243.277 14.1389C243.85 13.0648 244.656 12.2407 245.694 11.6667C246.731 11.0741 247.934 10.7778 249.305 10.7778C250.656 10.7778 251.833 11.0833 252.833 11.6944C253.833 12.287 254.611 13.1204 255.167 14.1944C255.722 15.25 256 16.4814 256 17.8889V19.0833H245.972C246.008 20.0278 246.36 20.7963 247.027 21.3889C247.694 21.9814 248.508 22.2778 249.472 22.2778C250.453 22.2778 251.175 22.0648 251.639 21.6389C252.101 21.213 252.453 20.7408 252.694 20.2222L255.556 21.7222C255.296 22.2037 254.917 22.7314 254.417 23.3056C253.934 23.8611 253.287 24.3426 252.472 24.75C251.656 25.1389 250.62 25.3333 249.361 25.3333ZM245.999 16.4722H252.444C252.37 15.6759 252.045 15.037 251.472 14.5556C250.916 14.0741 250.184 13.8333 249.277 13.8333C248.333 13.8333 247.583 14.0741 247.027 14.5556C246.472 15.037 246.128 15.6759 245.999 16.4722Z"
          fill="#202842"/>
</svg>
