<svg width="1085" height="342" viewBox="0 0 1085 342" fill="none" xmlns="http://www.w3.org/2000/svg">
<path d="M330.667 1.73347C321.2 6.6668 273.733 33.7335 238 54.5335C218.4 65.8668 210.667 76.5335 210.667 92.2668C210.667 97.7335 211.333 101.467 212.4 102.267C213.2 103.067 217.467 104.667 221.733 106C225.867 107.333 233.333 110.667 238.133 113.467C242.933 116.4 247.6 118.667 248.533 118.667C249.333 118.533 251.6 116.133 253.6 113.333C256.267 109.467 258.267 108 260.667 108C263.733 108 264.8 109.333 268.933 118.267C271.467 124 276.533 134.8 280.133 142.4C287.333 157.6 287.6 158.933 284.533 161.333C282 163.6 231.067 163.333 228.4 161.067C225.733 158.933 226.267 155.067 230.267 148C234.667 140.267 234 139.067 222.4 133.2C211.067 127.467 198.667 124.933 186.533 125.867C152.667 128.267 127.067 153.333 122.133 188.533C120.667 199.333 119.733 202.267 117.333 204.267C113.067 207.733 106.267 207.333 101.733 203.467C98.1333 200.4 98 199.733 98.2667 189.6C99.0667 147.333 129.467 112.133 173.867 102.133C177.6 101.2 177.6 101.2 177.067 92.2668C175.867 73.3335 169.333 66.2668 134 46.1335C90 21.2001 54.6667 2.53347 50 1.73347C42.9333 0.533467 38.1333 6.93347 40.8 14.0001C41.3333 15.2001 44.8 17.7335 48.5333 19.6001C54.4 22.5335 115.733 56.6668 127.6 63.4668C130 64.9335 132 66.4001 132 66.9335C132 68.4001 116.533 76.0001 113.733 76.0001C112.4 76.0001 109.467 74.8001 107.2 73.4668C103.067 70.9335 81.2 58.9335 60.6667 48.0001C54.8 44.8001 45.4667 39.7335 40 36.6668C23.6 27.3335 10.9333 21.3335 8.13333 21.3335C6.66667 21.3335 4.26667 22.6668 2.66667 24.2668C0 27.2001 0 28.2668 0 146.933C0 247.2 0.266667 267.333 1.86667 270.4C3.2 273.067 9.06667 276.667 22.9333 283.867C33.3333 289.333 57.8667 302.133 77.3333 312.4C96.8 322.533 114.8 331.2 117.6 331.6C121.733 332.267 124.533 331.067 137.6 323.733C145.867 318.933 156.667 312.8 161.6 310.133C174 303.2 177.333 299.067 177.333 290C177.333 282 176.667 281.2 167.2 278.133C163.333 276.933 156.4 273.467 151.6 270.667C146.8 267.733 142.267 265.333 141.733 265.333C141.2 265.333 138.667 268.4 136.133 272C131.333 279.2 127.467 280.533 123.6 276.267C122.533 275.067 119.2 267.067 116.267 258.667C113.333 250.267 109.333 239.867 107.467 235.467C103.467 226.4 103.067 221.867 106.4 220.267C109.6 218.533 158.4 218.4 161.467 220.133C165.067 222 164.533 226.667 159.867 233.733C157.6 237.2 156 240.933 156.267 242.267C156.8 245.333 169.333 252.8 178.667 255.6C190.133 259.067 206.533 258.533 218.533 254.267C246.133 244.533 264.133 221.733 267.333 192.4C268.8 179.2 275.2 174 284.8 178C291.2 180.667 292.8 186 290.933 199.2C289.2 212.267 285.867 222.4 279.467 233.733C267.867 254.533 244.133 273.333 223.333 278.533C210.8 281.733 210.667 281.733 210.667 289.733C210.667 293.867 211.467 297.867 212.667 299.6C213.867 301.2 224.133 308.267 235.733 315.067C263.6 331.867 264.8 332.4 270.533 331.6C273.2 331.333 294.533 320.933 318 308.667C341.467 296.4 365.333 283.867 371.2 280.933C388.533 271.733 386.667 287.467 386.667 147.867V26.8001L383.2 24.1335C381.2 22.5335 378.667 21.3335 377.6 21.3335C375.733 21.3335 341.2 39.7335 290.533 67.4668C282 72.1335 274.4 76.0001 273.467 76.0001C271.2 76.0001 256 68.1335 256 66.9335C256 65.4668 258.267 64.1335 298.667 41.8668C344.267 16.6668 345.333 15.8668 345.333 10.6668C345.333 6.00013 340.267 0.00013371 336.4 0.00013371C335.067 0.00013371 332.533 0.800134 330.667 1.73347Z" fill="#11131A"/>
<path d="M456.667 2.40007C444.8 2.66674 441.733 3.20007 440.4 4.93341C439.067 6.66674 438.667 22.6667 438.667 74.2667C438.667 139.6 438.8 141.467 441.333 144C443.867 146.533 445.733 146.667 470.4 146.667C500 146.667 510.667 145.333 521.6 140.4C529.6 136.8 538.133 128.933 542 121.333C549.867 106.133 542.4 80.8001 528 73.6001L522.4 70.9334L526.533 67.8667C528.667 66.2667 532.4 61.4667 534.533 57.3334C544.667 38.4001 535.867 15.7334 514.933 6.40007C508 3.33341 484.267 1.73341 456.667 2.40007ZM502.8 33.7334C508.267 37.3334 510.667 44.6667 508.267 50.0001C505.2 56.5334 499.467 58.6667 484.4 58.6667H470.667V44.6667V30.6667H484.533C496.667 30.6667 498.8 31.0667 502.8 33.7334ZM509.467 90.4001C515.067 96.6667 514.933 104.933 509.067 111.467C505.333 115.467 503.467 116.267 496 117.333C486 118.8 475.867 119.067 472.8 117.867C471.067 117.2 470.667 114.533 470.667 102C470.667 91.2001 471.2 86.6667 472.4 86.1334C473.2 85.7334 481.067 85.6001 489.867 85.7334L505.733 86.1334L509.467 90.4001Z" fill="#11131A"/>
<path d="M792 5.20007C791.2 6.93341 790.667 31.2001 790.667 74.6667C790.667 118.133 791.2 142.4 792 144.133C793.2 146.4 794.933 146.667 806 146.667C816.667 146.667 818.8 146.267 819.733 144.267C820.4 143.067 820.8 132.8 820.533 121.467C820.267 109.067 820.667 101.467 821.333 102.133C822 102.8 830.267 112.933 839.733 124.667L856.8 146L871.067 146.4C892.667 146.933 892.533 145.733 867.467 114C852.533 94.9334 849.867 90.9334 851.2 89.0667C852 87.8667 859.733 78.2667 868.4 67.6001C881.467 51.4667 884.133 47.4667 883.733 44.4001L883.333 40.6667L870.667 40.2667C863.733 40.0001 856.8 40.1334 855.333 40.5334C853.733 40.9334 845.733 50.5334 836.667 62.8001L820.667 84.2667L820.267 44.5334C820 14.8001 819.6 4.53341 818.267 3.73341C817.467 3.20007 811.467 2.66674 805.067 2.66674C794.933 2.66674 793.2 2.93341 792 5.20007Z" fill="#11131A"/>
<path d="M718.933 37.6001C700.4 39.7334 682.667 52.6668 674.267 70.2668C670.267 78.6668 670 80.4001 670 93.3334C670 106.667 670.267 107.867 674.8 117.333C682.933 134.4 694.667 143.867 712 147.467C730 151.2 749.733 145.867 762 134C785.467 111.2 785.867 75.8668 763.067 52.4001C751.467 40.4001 736.8 35.4668 718.933 37.6001ZM735.867 68.5334C742 71.7334 747.6 79.2001 749.333 86.4001C750.667 92.1334 750.533 94.4001 748.8 100.533C744 116.933 728 124.4 713.333 116.933C695.2 107.867 694.4 79.7334 711.867 69.4668C717.6 66.1334 730.267 65.7334 735.867 68.5334Z" fill="#11131A"/>
<path d="M591.333 39.6C570.133 47.2 557.2 62.4 553.333 83.7333C551.467 94.4 553.333 108.533 558 118.133C562.267 126.8 573.867 137.733 583.6 142.4C590.533 145.6 592.8 146 606.667 146C621.2 146 622.4 145.733 630.8 141.733C652.4 131.2 665.6 106.533 661.467 84.2667C658 65.3333 645.867 49.0667 629.733 41.6C619.467 36.9333 601.467 36 591.333 39.6ZM619.333 68.9333C633.6 76.6667 636.533 102.667 624.4 113.6C620.667 117.067 612.667 120 607.333 120C602 120 594 117.067 590.267 113.6C586.267 110 582.533 101.733 581.733 94.6667C580.267 81.6 589.733 68.9333 602.533 66.6667C607.867 65.7333 615.333 66.8 619.333 68.9333Z" fill="#11131A"/>
<path d="M424.267 185.6C422 187.867 422 302.8 424.267 305.067C426.533 307.333 488.133 307.333 490.4 305.067C492.667 302.8 492.533 284.8 490.267 282.933C489.2 282 480.667 281.2 469.2 281.067L450 280.667L449.6 268.933L449.2 257.2L466.8 257.467C476.4 257.467 484.8 257.067 485.333 256.533C486 255.867 486.667 250.933 486.933 245.467C487.333 232.267 486.933 232 465.733 232H449.333V220.667V209.333H469.2C492.933 209.333 493.333 209.2 493.333 197.2C493.333 183.2 495.467 184 458.267 184C434.8 184 425.467 184.4 424.267 185.6Z" fill="#11131A"/>
<path d="M655.333 185.6C654.933 186.533 654.8 214 654.933 246.667L655.333 306L665.067 306.4C671.2 306.667 675.6 306.133 676.8 305.2C678.267 304 678.667 298.4 678.667 277.733C678.667 255.867 679.067 251.2 680.933 248C685.6 240 696.267 238.267 702.4 244.4L706 248L706.667 276C707.067 293.6 707.867 304.4 708.8 305.333C709.733 306.267 714.267 306.667 720.133 306.4L730 306V272V238L726.267 231.333C721.2 222.133 715.467 218.533 704.933 217.733C694.8 216.933 688.4 218.667 682.8 223.867L678.667 227.733L678.4 206.133L678 184.667L666.933 184.267C658.933 184 655.733 184.4 655.333 185.6Z" fill="#11131A"/>
<path d="M607.6 217.333C588.933 222 577.067 235.6 574.667 255.333C572 276.533 580.933 295.6 597.067 303.6C603.733 306.933 606.133 307.333 617.333 307.333C628.267 307.333 631.067 306.8 637.733 303.733C644.133 300.667 645.333 299.6 645.333 296.667C645.333 293.067 639.733 280.8 637.333 279.333C636.533 278.8 632.267 279.733 627.867 281.333C618.133 284.667 611.733 283.867 606.133 278.8C598.533 271.733 596.533 261.067 601.333 251.467C606.667 240.8 616 237.6 627.733 242.667C631.467 244.267 635.467 245.333 636.533 244.933C638.933 244 645.333 231.867 645.333 228.133C645.333 221.067 620.933 214.133 607.6 217.333Z" fill="#11131A"/>
<path d="M865.2 217.333C858.667 218.133 852.8 221.2 849.067 225.867C846.8 228.667 846.667 228.667 846.667 224.267C846.667 219.333 843.333 217.333 835.333 217.333C832.8 217.333 829.333 217.867 827.467 218.667L824 220V262.533C824 300.133 824.267 305.2 826.133 305.867C829.333 307.067 843.067 306.8 845.333 305.333C846.933 304.4 847.467 299.2 848 277.467C848.667 253.2 848.933 250.533 851.467 247.067C855.733 241.2 860.667 239.333 866.8 241.2C875.067 243.733 875.733 246.267 876.4 276.8C876.667 291.6 877.333 304.267 877.867 305.067C879.067 307.067 898.133 307.2 899.333 305.2C900.933 302.8 900.133 241.067 898.533 236C894.133 222.4 881.333 215.2 865.2 217.333Z" fill="#11131A"/>
<path d="M1034.27 217.867C1015.07 223.067 1002.8 242.533 1004.4 265.333C1005.47 279.733 1008.67 287.333 1017.47 296.267C1023.47 302.267 1026.4 304.267 1032.67 306C1043.33 309.2 1061.07 308.267 1069.33 304.133C1079.73 299.067 1080.53 298.133 1078.67 292.8C1077.87 290.267 1076 286.667 1074.53 284.8L1071.87 281.467L1064.93 284.133C1059.6 286.267 1055.73 286.8 1048.27 286.4C1039.33 286 1038.4 285.6 1034.13 281.333C1031.6 278.8 1029.2 275.467 1028.8 274C1028 271.467 1028.67 271.333 1054.27 271.2C1084.13 270.933 1083.07 271.333 1084.53 259.6C1085.6 251.2 1082.67 238.8 1077.87 231.733C1073.6 225.067 1065.73 220 1056.4 217.867C1046.93 215.6 1042.53 215.6 1034.27 217.867ZM1056.53 242.933C1059.07 245.333 1061.47 248.667 1062 250.267L1062.8 253.333H1044.8C1034.8 253.333 1026.67 253.067 1026.67 252.667C1026.67 250.4 1031.07 243.867 1034.13 241.467C1036.8 239.467 1039.6 238.667 1044.8 238.667C1051.2 238.667 1052.67 239.2 1056.53 242.933Z" fill="#11131A"/>
<path d="M559.733 218.4L550.8 218.8L546.8 225.733C544.667 229.6 541.333 234.667 539.6 237.067L536.267 241.467L529.2 230L522.267 218.533L510.8 218.933C500.933 219.333 499.333 219.733 498.933 221.733C498.667 223.067 503.2 231.733 509.067 241.067C514.8 250.4 520 258.8 520.533 259.733C521.2 260.667 516.533 269.6 509.333 281.6C502.667 292.8 497.467 302.8 497.6 303.867C498 305.6 500.133 306 509.333 306H520.533L527.6 294C531.467 287.467 535.067 281.867 535.6 281.733C536.267 281.467 540 286.933 544 293.6L551.333 306L563.067 306.4C572.667 306.667 574.8 306.4 575.467 304.667C576 303.333 571.6 294.8 563.733 281.733L551.067 260.933L562.133 243.2C568.267 233.333 573.333 224 573.333 222.133C573.333 218.267 571.733 217.867 559.733 218.4Z" fill="#11131A"/>
<path d="M756.267 219.867C744 224.133 741.467 228.533 746.667 237.067C750.133 242.8 751.867 243.333 759.467 240.667C766.533 238.267 776.133 237.733 781.067 239.2C782.933 239.867 785.067 242.267 786.133 244.8C789.333 252.533 788.8 253.333 780.933 253.333C771.333 253.333 759.2 255.733 753.333 258.667C739.467 265.733 734.933 281.333 742.4 296.133C747.2 305.6 752.4 308.667 764 308.667C774.267 308.667 780.667 305.867 785.067 299.6L788 295.333V299.467C788 305.467 790.133 306.667 800.933 306.667C810.133 306.667 810.667 306.533 811.467 303.333C811.867 301.467 812 287.2 811.733 271.6C811.2 245.733 810.933 242.8 808.267 236.667C804.133 227.6 799.467 223.2 791.067 220C781.733 216.533 766.133 216.533 756.267 219.867ZM786.4 274.933C784.133 285.467 779.6 289.333 770.133 289.333C764.8 289.333 762.267 286.667 762.267 281.333C762.267 273.867 768.933 269.733 781.467 269.467L787.733 269.333L786.4 274.933Z" fill="#11131A"/>
<path d="M930.933 220.8C916.8 227.867 909.067 242 909.2 260.933C909.2 273.2 911.6 280.4 918.8 289.467C925.333 297.733 933.2 301.6 944.667 302.4C955.733 303.067 962.133 301.467 968.267 296.267L972.4 292.667L971.467 298.667C970.133 307.2 966.8 312 960 315.733C954.8 318.4 952.667 318.8 944.667 318.267C939.333 317.867 932.8 316.533 929.467 314.933C926.267 313.467 922.8 312.533 921.867 312.933C919.6 313.733 916 323.067 916 327.867C916 336 929.733 341.867 948.667 341.867C962.133 341.867 968.533 340.267 977.333 334.4C984.533 329.6 989.467 323.067 992.8 314C994.8 308.133 995.2 302.133 995.333 265.067C995.333 241.867 994.933 221.6 994.4 220.133C993.6 217.733 992.267 217.333 984.933 217.333C975.333 217.333 973.333 218.667 973.333 225.2V229.867L968.4 225.2C961.6 218.8 957.467 217.333 946.8 217.333C939.867 217.333 936.267 218.133 930.933 220.8ZM963.6 244.133C970.8 250.933 972.8 261.2 968.533 270.133C964.133 279.2 951.867 282.8 943.067 277.333C930.8 269.867 931.333 248.933 944 242.267C950.133 239.067 958.933 239.867 963.6 244.133Z" fill="#11131A"/>
</svg>
