<svg width="48" height="48" viewBox="0 0 48 48" fill="none" xmlns="http://www.w3.org/2000/svg">
    <rect x="0.5" y="0.5" width="47" height="47" rx="19.5" fill="#"/>
    <rect x="0.5" y="0.5" width="47" height="47" rx="19.5" stroke="#"/>
    <path d="M24 30.3556H17.875C17.6429 30.3556 17.4204 30.2666 17.2563 30.1082C17.0922 29.9499 17 29.7351 17 29.5111C17 29.3691 17.0371 29.2293 17.1079 29.1047C17.1787 28.9802 17.2809 28.8749 17.405 28.7986H17.4067L18.75 27.8222V22.7556C18.75 20.3952 20.424 18.4169 22.6875 17.8538V17.2667C22.6875 16.5675 23.2755 16 24 16C24.7245 16 25.3125 16.5675 25.3125 17.2667V17.8538C27.576 18.4169 29.25 20.3952 29.25 22.7556V27.8222L30.595 28.7986C30.7191 28.8749 30.8213 28.9802 30.8921 29.1047C30.9629 29.2293 31 29.3691 31 29.5111C31 29.7351 30.9078 29.9499 30.7437 30.1082C30.5796 30.2666 30.3571 30.3556 30.125 30.3556H24ZM24 30.3556H26.1875C26.1875 31.2844 24.9625 32 24 32C23.0375 32 21.8125 31.2844 21.8125 30.3556H24Z"
          stroke="#11131A" stroke-width="1.5"/>
</svg>
