<svg width="48" height="48" viewBox="0 0 48 48" fill="none" xmlns="http://www.w3.org/2000/svg">
    <rect x="0.5" y="0.5" width="47" height="47" rx="19.5" fill="#"/>
    <rect x="0.5" y="0.5" width="47" height="47" rx="19.5" stroke="#"/>
    <path d="M22.7659 29.5319C23.9282 29.533 25.0708 29.2327 26.0823 28.6604L28.8883 31.4662C29.2302 31.808 29.6938 32 30.1772 32C30.6607 32 31.1243 31.808 31.4661 31.4662C31.808 31.1244 32 30.6608 32 30.1774C32 29.694 31.808 29.2304 31.4661 28.8886L28.6601 26.0828C29.4625 24.6583 29.7218 22.9914 29.3898 21.3905C29.0579 19.7896 28.1573 18.3631 26.8546 17.375C25.552 16.3869 23.9355 15.9041 22.3042 16.0158C20.673 16.1276 19.1374 16.8264 17.9817 17.9829C17.0355 18.9291 16.3911 20.1345 16.13 21.4469C15.8689 22.7592 16.0029 24.1195 16.515 25.3557C17.0271 26.5919 17.8943 27.6485 19.007 28.3918C20.1197 29.1352 21.4278 29.532 22.7659 29.5319ZM19.1725 19.1736C20.0038 18.3428 21.0975 17.8258 22.2673 17.7108C23.437 17.5959 24.6105 17.89 25.5876 18.5431C26.5648 19.1962 27.2853 20.1679 27.6263 21.2927C27.9674 22.4174 27.9079 23.6256 27.458 24.7113C27.008 25.7971 26.1955 26.6933 25.1589 27.2472C24.1223 27.8012 22.9256 27.9786 21.7728 27.7492C20.62 27.5199 19.5824 26.898 18.8368 25.9895C18.0912 25.0809 17.6836 23.942 17.6836 22.7667C17.6816 22.0991 17.8121 21.4377 18.0677 20.8209C18.3233 20.2041 18.6988 19.6442 19.1725 19.1736Z"
          fill="#11131A"/>
</svg>
