<svg width="48" height="48" viewBox="0 0 48 48" fill="none" xmlns="http://www.w3.org/2000/svg">
    <rect x="0.5" y="0.5" width="47" height="47" rx="19.5" fill="#"/>
    <rect x="0.5" y="0.5" width="47" height="47" rx="19.5" stroke="#"/>
    <path d="M24 26.9004C25.2225 26.9004 27.1091 27.2138 28.667 27.8379C29.4449 28.1495 30.0841 28.5167 30.5146 28.9141C30.9392 29.3059 31.0996 29.6656 31.0996 30V31C31.0996 31.0247 31.0912 31.0495 31.0703 31.0703C31.0495 31.0912 31.0247 31.0996 31 31.0996H17C16.9753 31.0996 16.9505 31.0912 16.9297 31.0703C16.9088 31.0495 16.9004 31.0247 16.9004 31V30C16.9004 29.6656 17.0608 29.3059 17.4854 28.9141C17.9159 28.5167 18.5551 28.1495 19.333 27.8379C20.8909 27.2138 22.7775 26.9004 24 26.9004ZM24 16.9004C25.7129 16.9004 27.0996 18.2871 27.0996 20C27.0996 21.7129 25.7129 23.0996 24 23.0996C22.2871 23.0996 20.9004 21.7129 20.9004 20C20.9004 18.2871 22.2871 16.9004 24 16.9004Z"
          stroke="#11131A" stroke-width="1.8"/>
</svg>
